<?xml version="1.0" encoding="utf-8"?>
<!-- Generator: Adobe Illustrator 19.0.0, SVG Export Plug-In . SVG Version: 6.00 Build 0)  -->
<svg version="1.1" id="Camada_1" xmlns="http://www.w3.org/2000/svg" xmlns:xlink="http://www.w3.org/1999/xlink" x="0px" y="0px"
	 viewBox="0 0 50 50" style="enable-background:new 0 0 50 50;" xml:space="preserve">
<style type="text/css">
	.st0{fill:#FFFFFF;}
</style>
<g id="XMLID_173_">
	<g id="XMLID_103_">
		<path id="XMLID_174_" class="st0" d="M10.2,43.7c-0.4-0.1-0.8-0.2-1.1-0.4c-0.8-0.5-1.2-1.2-1.2-2c0-2.8,0-5.6,0-8.4
			c0-5,0-9.9,0-14.9c0-0.1,0-0.3,0-0.4c1,0,1.9,0,2.8,0c0,0.2,0,0.3,0,0.4c0,1.4-0.1,2.8,0.1,4.2c0.2,2.1,2.5,3.8,4.9,3.9
			c2.6,0,4.9-1.5,5.3-3.7c0.1-0.4,0.1-0.8,0.1-1.2c0-1.2,0-2.4,0-3.6c3.8,0,7.6,0,11.4,0c0,0.2,0,0.3,0,0.5c0,7.6,0,15.2,0,22.8
			c0,1.7-0.4,2.3-2.2,2.9C23.7,43.7,17,43.7,10.2,43.7z"/>
		<path id="XMLID_148_" class="st0" d="M21,6.3c0.3,0.1,0.5,0.1,0.8,0.2c1.1,0.3,2.1,0.8,2.8,1.5c0.8,0.8,1.5,0.9,2.5,0.4
			c2.1-0.9,4.7-0.5,6.1,1.1c1.5,1.6,1.4,3.9-0.1,5.4c-0.2,0.2-0.5,0.3-0.8,0.3c-4.4,0-8.7,0-13.1,0c-0.2,0-0.3,0-0.5,0
			c0,0.2,0,0.3,0,0.4c0,1.9,0,3.8,0,5.8c0,1-0.6,1.7-1.6,2.1c-1,0.4-2,0.3-2.8-0.3c-0.7-0.5-1-1.1-1-1.9c0-1.8,0-3.7,0-5.5
			c0-0.1,0-0.3,0-0.5c-0.2,0-0.3,0-0.5,0c-1.5,0-3.1,0-4.6,0c-0.3,0-0.5-0.1-0.7-0.3C6,13.5,5.9,11.2,7.3,9.6c1.4-1.6,4-2.2,6.1-1.3
			c1.2,0.5,1.8,0.4,2.7-0.4c0.9-0.8,2-1.3,3.3-1.5c0.1,0,0.2,0,0.2-0.1C20.1,6.3,20.6,6.3,21,6.3z"/>
		<path id="XMLID_136_" class="st0" d="M35.2,39.1c0-1.6,0-3.1,0-4.6c0.2,0,0.5,0,0.7,0c1.4-0.2,2.4-1.1,2.4-2.3c0-1.7,0-3.5,0-5.2
			c0-1.3-1.2-2.3-2.7-2.3c-0.1,0-0.2,0-0.4,0c0-1.6,0-3.1,0-4.6c5.1-0.5,8.4,2.6,8.5,6.1c0,2.3,0,4.5,0,6.8
			c-0.1,3.5-3.2,6.2-7.2,6.2C36,39.1,35.6,39.1,35.2,39.1z"/>
	</g>
</g>
</svg>
