<?xml version="1.0" encoding="utf-8"?>
<!-- Generator: Adobe Illustrator 19.0.0, SVG Export Plug-In . SVG Version: 6.00 Build 0)  -->
<svg version="1.1" id="Camada_1" xmlns="http://www.w3.org/2000/svg" xmlns:xlink="http://www.w3.org/1999/xlink" x="0px" y="0px"
	 viewBox="0 0 50 50" style="enable-background:new 0 0 50 50;" xml:space="preserve">
<style type="text/css">
	.st0{fill:#FFFFFF;}
</style>
<g id="XMLID_282_">
	<path id="XMLID_250_" class="st0" d="M367.8,324c-0.1-1.7-1.7-3.7-2.6-4.7c-0.2-0.2-0.4-0.4-0.4-0.5c-0.3-0.4-0.3-1.1-0.1-2.1
		c0.3-1.2-0.1-3.3-0.1-3.7c-0.1-0.3-0.2-0.7-0.5-1.5c-0.1-0.2-0.1-0.4-0.2-0.5c0-0.1-0.1-0.2-0.1-0.3c0,0,0.1-0.1,0.1-0.1
		c0.1-0.2,0.2-0.4,0.2-2.9c0-0.2,0-0.3,0-0.5c0-0.5,0-0.7-0.1-0.9c0,0,0,0,0,0c0,0,0-0.1,0-0.1c0.1-0.1,0.1-0.1,0-1.3
		c0-0.2,0-0.4,0-0.4c0-0.4-0.3-0.6-0.5-0.6c0,0,0,0,0,0c0,0,0,0,0,0c0,0-0.1,0-0.2,0l-0.1,0h-3.4l-0.1,0c-0.1,0-0.2,0-0.2,0
		c0,0,0,0,0,0c0,0,0,0,0,0c-0.2,0-0.4,0.1-0.5,0.3c0,0.1,0,0.2,0,0.3c0,0,0,0.2,0,0.4c0,1.2,0,1.2,0,1.3c0,0,0,0,0,0.1c0,0,0,0,0,0
		c-0.1,0.2-0.1,0.4-0.1,0.9c0,0.1,0,0.3,0,0.5c0,2.5,0,2.7,0.2,2.9c0,0.1,0.1,0.1,0.1,0.1c0,0.1-0.1,0.2-0.1,0.3
		c-0.1,0.2-0.1,0.3-0.2,0.5c-0.3,0.7-0.4,1.2-0.5,1.5c-0.1,0.4-0.4,2.5-0.1,3.7c0.2,1,0.2,1.7-0.1,2.1c-0.1,0.1-0.2,0.3-0.4,0.5
		c-0.9,1-2.6,3-2.6,4.7c0,1,0,6.6,0.1,12.3c0,3,0.1,5.6,0.2,7.5c0.1,3.6,0.2,3.6,0.3,3.8c0,0,0.1,0.1,0.1,0.1c0.4,0.4,0.8,0.9,2.1,1
		l7.3,0l0,0c1.3-0.1,1.7-0.5,2.1-1c0,0,0.1-0.1,0.1-0.1c0.2-0.2,0.2-0.3,0.3-3.8c0.1-1.9,0.1-4.5,0.2-7.5
		C367.8,330.6,367.9,325,367.8,324z"/>
	<path id="XMLID_85_" class="st0" d="M383.1,324.3c-0.1-1.5-1.5-3.2-2.3-4.1c-0.2-0.2-0.3-0.4-0.4-0.4c-0.2-0.3-0.3-1,0-1.9
		c0.3-1,0-2.9-0.1-3.2c0-0.2-0.2-0.6-0.4-1.3c-0.1-0.2-0.1-0.3-0.2-0.5c0-0.1-0.1-0.2-0.1-0.3c0,0,0.1-0.1,0.1-0.1
		c0.1-0.2,0.2-0.3,0.1-2.6c0-0.2,0-0.3,0-0.4c0-0.4,0-0.7-0.1-0.8c0,0,0,0,0,0c0,0,0,0,0-0.1c0.1-0.1,0.1-0.1,0-1.2
		c0-0.1,0-0.3,0-0.3c0-0.3-0.2-0.5-0.5-0.5c0,0,0,0,0,0c0,0,0,0,0,0c0,0-0.1,0-0.2,0l-0.1,0h-3l-0.1,0c-0.1,0-0.1,0-0.2,0
		c0,0,0,0,0,0c0,0,0,0,0,0c-0.2,0-0.4,0.1-0.4,0.3c0,0.1,0,0.2,0,0.2c0,0,0,0.2,0,0.3c0,1,0,1,0,1.2c0,0,0,0,0,0.1c0,0,0,0,0,0
		c0,0.2-0.1,0.4-0.1,0.8c0,0.1,0,0.2,0,0.4c0,2.2,0,2.4,0.1,2.6c0,0,0.1,0.1,0.1,0.1c0,0.1-0.1,0.2-0.1,0.3
		c-0.1,0.1-0.1,0.3-0.2,0.5c-0.2,0.6-0.4,1-0.4,1.3c-0.1,0.3-0.4,2.2-0.1,3.2c0.2,0.9,0.2,1.5,0,1.9c-0.1,0.1-0.2,0.3-0.4,0.4
		c-0.8,0.9-2.3,2.6-2.3,4.1c0,0.9,0,5.8,0.1,10.8c0,2.7,0.1,5,0.1,6.6c0.1,3.1,0.2,3.2,0.3,3.4c0,0,0,0.1,0.1,0.1
		c0.3,0.4,0.7,0.8,1.8,0.8l6.5,0l0,0c1.1-0.1,1.5-0.5,1.8-0.8c0,0,0-0.1,0.1-0.1c0.1-0.2,0.2-0.2,0.3-3.4c0.1-1.7,0.1-4,0.1-6.6
		C383.1,330.1,383.2,325.1,383.1,324.3z"/>
	<path id="XMLID_87_" class="st0" d="M351.8,324.3c-0.1-1.5-1.5-3.2-2.3-4.1c-0.2-0.2-0.3-0.4-0.4-0.4c-0.2-0.3-0.3-1,0-1.9
		c0.3-1,0-2.9-0.1-3.2c0-0.2-0.2-0.6-0.4-1.3c-0.1-0.2-0.1-0.3-0.2-0.5c0-0.1-0.1-0.2-0.1-0.3c0,0,0.1-0.1,0.1-0.1
		c0.1-0.2,0.2-0.3,0.1-2.6c0-0.2,0-0.3,0-0.4c0-0.4,0-0.7-0.1-0.8c0,0,0,0,0,0c0,0,0,0,0-0.1c0.1-0.1,0.1-0.1,0-1.2
		c0-0.1,0-0.3,0-0.3c0-0.3-0.2-0.5-0.5-0.5c0,0,0,0,0,0c0,0,0,0,0,0c0,0-0.1,0-0.2,0l-0.1,0h-3l-0.1,0c-0.1,0-0.1,0-0.2,0
		c0,0,0,0,0,0c0,0,0,0,0,0c-0.2,0-0.4,0.1-0.4,0.3c0,0.1,0,0.2,0,0.2c0,0,0,0.2,0,0.3c0,1,0,1,0,1.2c0,0,0,0,0,0.1c0,0,0,0,0,0
		c0,0.2-0.1,0.4-0.1,0.8c0,0.1,0,0.2,0,0.4c0,2.2,0,2.4,0.1,2.6c0,0,0.1,0.1,0.1,0.1c0,0.1-0.1,0.2-0.1,0.3
		c-0.1,0.1-0.1,0.3-0.2,0.5c-0.2,0.6-0.4,1-0.4,1.3c-0.1,0.3-0.4,2.2-0.1,3.2c0.2,0.9,0.2,1.5,0,1.9c-0.1,0.1-0.2,0.3-0.4,0.4
		c-0.8,0.9-2.3,2.6-2.3,4.1c0,0.9,0,5.8,0.1,10.8c0,2.7,0.1,5,0.1,6.6c0.1,3.1,0.2,3.2,0.3,3.4c0,0,0,0.1,0.1,0.1
		c0.3,0.4,0.7,0.8,1.8,0.8l6.5,0l0,0c1.1-0.1,1.5-0.5,1.8-0.8c0,0,0-0.1,0.1-0.1c0.1-0.2,0.2-0.2,0.3-3.4c0.1-1.7,0.1-4,0.1-6.6
		C351.9,330.1,351.9,325.1,351.8,324.3z"/>
</g>
<g id="XMLID_1_">
	<path id="XMLID_8_" class="st0" d="M367.8,324c-0.1-1.7-1.7-3.7-2.6-4.7c-0.2-0.2-0.4-0.4-0.4-0.5c-0.3-0.4-0.3-1.1-0.1-2.1
		c0.3-1.2-0.1-3.3-0.1-3.7c-0.1-0.3-0.2-0.7-0.5-1.5c-0.1-0.2-0.1-0.4-0.2-0.5c0-0.1-0.1-0.2-0.1-0.3c0,0,0.1-0.1,0.1-0.1
		c0.1-0.2,0.2-0.4,0.2-2.9c0-0.2,0-0.3,0-0.5c0-0.5,0-0.7-0.1-0.9c0,0,0,0,0,0c0,0,0-0.1,0-0.1c0.1-0.1,0.1-0.1,0-1.3
		c0-0.2,0-0.4,0-0.4c0-0.4-0.3-0.6-0.5-0.6c0,0,0,0,0,0c0,0,0,0,0,0c0,0-0.1,0-0.2,0l-0.1,0h-3.4l-0.1,0c-0.1,0-0.2,0-0.2,0
		c0,0,0,0,0,0c0,0,0,0,0,0c-0.2,0-0.4,0.1-0.5,0.3c0,0.1,0,0.2,0,0.3c0,0,0,0.2,0,0.4c0,1.2,0,1.2,0,1.3c0,0,0,0,0,0.1c0,0,0,0,0,0
		c-0.1,0.2-0.1,0.4-0.1,0.9c0,0.1,0,0.3,0,0.5c0,2.5,0,2.7,0.2,2.9c0,0.1,0.1,0.1,0.1,0.1c0,0.1-0.1,0.2-0.1,0.3
		c-0.1,0.2-0.1,0.3-0.2,0.5c-0.3,0.7-0.4,1.2-0.5,1.5c-0.1,0.4-0.4,2.5-0.1,3.7c0.2,1,0.2,1.7-0.1,2.1c-0.1,0.1-0.2,0.3-0.4,0.5
		c-0.9,1-2.6,3-2.6,4.7c0,1,0,6.6,0.1,12.3c0,3,0.1,5.6,0.2,7.5c0.1,3.6,0.2,3.6,0.3,3.8c0,0,0.1,0.1,0.1,0.1c0.4,0.4,0.8,0.9,2.1,1
		l7.3,0l0,0c1.3-0.1,1.7-0.5,2.1-1c0,0,0.1-0.1,0.1-0.1c0.2-0.2,0.2-0.3,0.3-3.8c0.1-1.9,0.1-4.5,0.2-7.5
		C367.8,330.6,367.9,325,367.8,324z"/>
	<path id="XMLID_5_" class="st0" d="M383.1,324.3c-0.1-1.5-1.5-3.2-2.3-4.1c-0.2-0.2-0.3-0.4-0.4-0.4c-0.2-0.3-0.3-1,0-1.9
		c0.3-1,0-2.9-0.1-3.2c0-0.2-0.2-0.6-0.4-1.3c-0.1-0.2-0.1-0.3-0.2-0.5c0-0.1-0.1-0.2-0.1-0.3c0,0,0.1-0.1,0.1-0.1
		c0.1-0.2,0.2-0.3,0.1-2.6c0-0.2,0-0.3,0-0.4c0-0.4,0-0.7-0.1-0.8c0,0,0,0,0,0c0,0,0,0,0-0.1c0.1-0.1,0.1-0.1,0-1.2
		c0-0.1,0-0.3,0-0.3c0-0.3-0.2-0.5-0.5-0.5c0,0,0,0,0,0c0,0,0,0,0,0c0,0-0.1,0-0.2,0l-0.1,0h-3l-0.1,0c-0.1,0-0.1,0-0.2,0
		c0,0,0,0,0,0c0,0,0,0,0,0c-0.2,0-0.4,0.1-0.4,0.3c0,0.1,0,0.2,0,0.2c0,0,0,0.2,0,0.3c0,1,0,1,0,1.2c0,0,0,0,0,0.1c0,0,0,0,0,0
		c0,0.2-0.1,0.4-0.1,0.8c0,0.1,0,0.2,0,0.4c0,2.2,0,2.4,0.1,2.6c0,0,0.1,0.1,0.1,0.1c0,0.1-0.1,0.2-0.1,0.3
		c-0.1,0.1-0.1,0.3-0.2,0.5c-0.2,0.6-0.4,1-0.4,1.3c-0.1,0.3-0.4,2.2-0.1,3.2c0.2,0.9,0.2,1.5,0,1.9c-0.1,0.1-0.2,0.3-0.4,0.4
		c-0.8,0.9-2.3,2.6-2.3,4.1c0,0.9,0,5.8,0.1,10.8c0,2.7,0.1,5,0.1,6.6c0.1,3.1,0.2,3.2,0.3,3.4c0,0,0,0.1,0.1,0.1
		c0.3,0.4,0.7,0.8,1.8,0.8l6.5,0l0,0c1.1-0.1,1.5-0.5,1.8-0.8c0,0,0-0.1,0.1-0.1c0.1-0.2,0.2-0.2,0.3-3.4c0.1-1.7,0.1-4,0.1-6.6
		C383.1,330.1,383.2,325.1,383.1,324.3z"/>
	<path id="XMLID_2_" class="st0" d="M351.8,324.3c-0.1-1.5-1.5-3.2-2.3-4.1c-0.2-0.2-0.3-0.4-0.4-0.4c-0.2-0.3-0.3-1,0-1.9
		c0.3-1,0-2.9-0.1-3.2c0-0.2-0.2-0.6-0.4-1.3c-0.1-0.2-0.1-0.3-0.2-0.5c0-0.1-0.1-0.2-0.1-0.3c0,0,0.1-0.1,0.1-0.1
		c0.1-0.2,0.2-0.3,0.1-2.6c0-0.2,0-0.3,0-0.4c0-0.4,0-0.7-0.1-0.8c0,0,0,0,0,0c0,0,0,0,0-0.1c0.1-0.1,0.1-0.1,0-1.2
		c0-0.1,0-0.3,0-0.3c0-0.3-0.2-0.5-0.5-0.5c0,0,0,0,0,0c0,0,0,0,0,0c0,0-0.1,0-0.2,0l-0.1,0h-3l-0.1,0c-0.1,0-0.1,0-0.2,0
		c0,0,0,0,0,0c0,0,0,0,0,0c-0.2,0-0.4,0.1-0.4,0.3c0,0.1,0,0.2,0,0.2c0,0,0,0.2,0,0.3c0,1,0,1,0,1.2c0,0,0,0,0,0.1c0,0,0,0,0,0
		c0,0.2-0.1,0.4-0.1,0.8c0,0.1,0,0.2,0,0.4c0,2.2,0,2.4,0.1,2.6c0,0,0.1,0.1,0.1,0.1c0,0.1-0.1,0.2-0.1,0.3
		c-0.1,0.1-0.1,0.3-0.2,0.5c-0.2,0.6-0.4,1-0.4,1.3c-0.1,0.3-0.4,2.2-0.1,3.2c0.2,0.9,0.2,1.5,0,1.9c-0.1,0.1-0.2,0.3-0.4,0.4
		c-0.8,0.9-2.3,2.6-2.3,4.1c0,0.9,0,5.8,0.1,10.8c0,2.7,0.1,5,0.1,6.6c0.1,3.1,0.2,3.2,0.3,3.4c0,0,0,0.1,0.1,0.1
		c0.3,0.4,0.7,0.8,1.8,0.8l6.5,0l0,0c1.1-0.1,1.5-0.5,1.8-0.8c0,0,0-0.1,0.1-0.1c0.1-0.2,0.2-0.2,0.3-3.4c0.1-1.7,0.1-4,0.1-6.6
		C351.9,330.1,351.9,325.1,351.8,324.3z"/>
</g>
<g id="XMLID_17_">
	<path id="XMLID_24_" class="st0" d="M368.6,324.3c-0.1-1.7-1.7-3.7-2.6-4.7c-0.2-0.2-0.4-0.4-0.4-0.5c-0.3-0.4-0.3-1.1-0.1-2.1
		c0.3-1.2-0.1-3.3-0.1-3.7c-0.1-0.3-0.2-0.7-0.5-1.5c-0.1-0.2-0.1-0.4-0.2-0.5c0-0.1-0.1-0.2-0.1-0.3c0,0,0.1-0.1,0.1-0.1
		c0.1-0.2,0.2-0.4,0.2-2.9c0-0.2,0-0.3,0-0.5c0-0.5,0-0.7-0.1-0.9c0,0,0,0,0,0c0,0,0-0.1,0-0.1c0.1-0.1,0.1-0.1,0-1.3
		c0-0.2,0-0.4,0-0.4c0-0.4-0.3-0.6-0.5-0.6c0,0,0,0,0,0c0,0,0,0,0,0c0,0-0.1,0-0.2,0l-0.1,0h-3.4l-0.1,0c-0.1,0-0.2,0-0.2,0
		c0,0,0,0,0,0c0,0,0,0,0,0c-0.2,0-0.4,0.1-0.5,0.3c0,0.1,0,0.2,0,0.3c0,0,0,0.2,0,0.4c0,1.2,0,1.2,0,1.3c0,0,0,0,0,0.1c0,0,0,0,0,0
		c-0.1,0.2-0.1,0.4-0.1,0.9c0,0.1,0,0.3,0,0.5c0,2.5,0,2.7,0.2,2.9c0,0.1,0.1,0.1,0.1,0.1c0,0.1-0.1,0.2-0.1,0.3
		c-0.1,0.2-0.1,0.3-0.2,0.5c-0.3,0.7-0.4,1.2-0.5,1.5c-0.1,0.4-0.4,2.5-0.1,3.7c0.2,1,0.2,1.7-0.1,2.1c-0.1,0.1-0.2,0.3-0.4,0.5
		c-0.9,1-2.6,3-2.6,4.7c0,1,0,6.6,0.1,12.3c0,3,0.1,5.6,0.2,7.5c0.1,3.6,0.2,3.6,0.3,3.8c0,0,0.1,0.1,0.1,0.1c0.4,0.4,0.8,0.9,2.1,1
		l7.3,0l0,0c1.3-0.1,1.7-0.5,2.1-1c0,0,0.1-0.1,0.1-0.1c0.2-0.2,0.2-0.3,0.3-3.8c0.1-1.9,0.1-4.5,0.2-7.5
		C368.6,330.9,368.6,325.2,368.6,324.3z"/>
	<path id="XMLID_21_" class="st0" d="M383.9,324.5c-0.1-1.5-1.5-3.2-2.3-4.1c-0.2-0.2-0.3-0.4-0.4-0.4c-0.2-0.3-0.3-1,0-1.9
		c0.3-1,0-2.9-0.1-3.2c0-0.2-0.2-0.6-0.4-1.3c-0.1-0.2-0.1-0.3-0.2-0.5c0-0.1-0.1-0.2-0.1-0.3c0,0,0.1-0.1,0.1-0.1
		c0.1-0.2,0.2-0.3,0.1-2.6c0-0.2,0-0.3,0-0.4c0-0.4,0-0.7-0.1-0.8c0,0,0,0,0,0c0,0,0,0,0-0.1c0.1-0.1,0.1-0.1,0-1.2
		c0-0.1,0-0.3,0-0.3c0-0.3-0.2-0.5-0.5-0.5c0,0,0,0,0,0c0,0,0,0,0,0c0,0-0.1,0-0.2,0l-0.1,0h-3l-0.1,0c-0.1,0-0.1,0-0.2,0
		c0,0,0,0,0,0c0,0,0,0,0,0c-0.2,0-0.4,0.1-0.4,0.3c0,0.1,0,0.2,0,0.2c0,0,0,0.2,0,0.3c0,1,0,1,0,1.2c0,0,0,0,0,0.1c0,0,0,0,0,0
		c0,0.2-0.1,0.4-0.1,0.8c0,0.1,0,0.2,0,0.4c0,2.2,0,2.4,0.1,2.6c0,0,0.1,0.1,0.1,0.1c0,0.1-0.1,0.2-0.1,0.3
		c-0.1,0.1-0.1,0.3-0.2,0.5c-0.2,0.6-0.4,1-0.4,1.3c-0.1,0.3-0.4,2.2-0.1,3.2c0.2,0.9,0.2,1.5,0,1.9c-0.1,0.1-0.2,0.3-0.4,0.4
		c-0.8,0.9-2.3,2.6-2.3,4.1c0,0.9,0,5.8,0.1,10.8c0,2.7,0.1,5,0.1,6.6c0.1,3.1,0.2,3.2,0.3,3.4c0,0,0,0.1,0.1,0.1
		c0.3,0.4,0.7,0.8,1.8,0.8l6.5,0l0,0c1.1-0.1,1.5-0.5,1.8-0.8c0,0,0-0.1,0.1-0.1c0.1-0.2,0.2-0.2,0.3-3.4c0.1-1.7,0.1-4,0.1-6.6
		C383.9,330.3,383.9,325.4,383.9,324.5z"/>
	<path id="XMLID_18_" class="st0" d="M352.6,324.5c-0.1-1.5-1.5-3.2-2.3-4.1c-0.2-0.2-0.3-0.4-0.4-0.4c-0.2-0.3-0.3-1,0-1.9
		c0.3-1,0-2.9-0.1-3.2c0-0.2-0.2-0.6-0.4-1.3c-0.1-0.2-0.1-0.3-0.2-0.5c0-0.1-0.1-0.2-0.1-0.3c0,0,0.1-0.1,0.1-0.1
		c0.1-0.2,0.2-0.3,0.1-2.6c0-0.2,0-0.3,0-0.4c0-0.4,0-0.7-0.1-0.8c0,0,0,0,0,0c0,0,0,0,0-0.1c0.1-0.1,0.1-0.1,0-1.2
		c0-0.1,0-0.3,0-0.3c0-0.3-0.2-0.5-0.5-0.5c0,0,0,0,0,0c0,0,0,0,0,0c0,0-0.1,0-0.2,0l-0.1,0h-3l-0.1,0c-0.1,0-0.1,0-0.2,0
		c0,0,0,0,0,0c0,0,0,0,0,0c-0.2,0-0.4,0.1-0.4,0.3c0,0.1,0,0.2,0,0.2c0,0,0,0.2,0,0.3c0,1,0,1,0,1.2c0,0,0,0,0,0.1c0,0,0,0,0,0
		c0,0.2-0.1,0.4-0.1,0.8c0,0.1,0,0.2,0,0.4c0,2.2,0,2.4,0.1,2.6c0,0,0.1,0.1,0.1,0.1c0,0.1-0.1,0.2-0.1,0.3
		c-0.1,0.1-0.1,0.3-0.2,0.5c-0.2,0.6-0.4,1-0.4,1.3c-0.1,0.3-0.4,2.2-0.1,3.2c0.2,0.9,0.2,1.5,0,1.9c-0.1,0.1-0.2,0.3-0.4,0.4
		c-0.8,0.9-2.3,2.6-2.3,4.1c0,0.9,0,5.8,0.1,10.8c0,2.7,0.1,5,0.1,6.6c0.1,3.1,0.2,3.2,0.3,3.4c0,0,0,0.1,0.1,0.1
		c0.3,0.4,0.7,0.8,1.8,0.8l6.5,0l0,0c1.1-0.1,1.5-0.5,1.8-0.8c0,0,0-0.1,0.1-0.1c0.1-0.2,0.2-0.2,0.3-3.4c0.1-1.7,0.1-4,0.1-6.6
		C352.6,330.3,352.7,325.4,352.6,324.5z"/>
</g>
<g id="XMLID_27_">
	<path id="XMLID_34_" class="st0" d="M368.6,324.3c-0.1-1.7-1.7-3.7-2.6-4.7c-0.2-0.2-0.4-0.4-0.4-0.5c-0.3-0.4-0.3-1.1-0.1-2.1
		c0.3-1.2-0.1-3.3-0.1-3.7c-0.1-0.3-0.2-0.7-0.5-1.5c-0.1-0.2-0.1-0.4-0.2-0.5c0-0.1-0.1-0.2-0.1-0.3c0,0,0.1-0.1,0.1-0.1
		c0.1-0.2,0.2-0.4,0.2-2.9c0-0.2,0-0.3,0-0.5c0-0.5,0-0.7-0.1-0.9c0,0,0,0,0,0c0,0,0-0.1,0-0.1c0.1-0.1,0.1-0.1,0-1.3
		c0-0.2,0-0.4,0-0.4c0-0.4-0.3-0.6-0.5-0.6c0,0,0,0,0,0c0,0,0,0,0,0c0,0-0.1,0-0.2,0l-0.1,0h-3.4l-0.1,0c-0.1,0-0.2,0-0.2,0
		c0,0,0,0,0,0c0,0,0,0,0,0c-0.2,0-0.4,0.1-0.5,0.3c0,0.1,0,0.2,0,0.3c0,0,0,0.2,0,0.4c0,1.2,0,1.2,0,1.3c0,0,0,0,0,0.1c0,0,0,0,0,0
		c-0.1,0.2-0.1,0.4-0.1,0.9c0,0.1,0,0.3,0,0.5c0,2.5,0,2.7,0.2,2.9c0,0.1,0.1,0.1,0.1,0.1c0,0.1-0.1,0.2-0.1,0.3
		c-0.1,0.2-0.1,0.3-0.2,0.5c-0.3,0.7-0.4,1.2-0.5,1.5c-0.1,0.4-0.4,2.5-0.1,3.7c0.2,1,0.2,1.7-0.1,2.1c-0.1,0.1-0.2,0.3-0.4,0.5
		c-0.9,1-2.6,3-2.6,4.7c0,1,0,6.6,0.1,12.3c0,3,0.1,5.6,0.2,7.5c0.1,3.6,0.2,3.6,0.3,3.8c0,0,0.1,0.1,0.1,0.1c0.4,0.4,0.8,0.9,2.1,1
		l7.3,0l0,0c1.3-0.1,1.7-0.5,2.1-1c0,0,0.1-0.1,0.1-0.1c0.2-0.2,0.2-0.3,0.3-3.8c0.1-1.9,0.1-4.5,0.2-7.5
		C368.6,330.9,368.6,325.2,368.6,324.3z"/>
	<path id="XMLID_31_" class="st0" d="M383.9,324.5c-0.1-1.5-1.5-3.2-2.3-4.1c-0.2-0.2-0.3-0.4-0.4-0.4c-0.2-0.3-0.3-1,0-1.9
		c0.3-1,0-2.9-0.1-3.2c0-0.2-0.2-0.6-0.4-1.3c-0.1-0.2-0.1-0.3-0.2-0.5c0-0.1-0.1-0.2-0.1-0.3c0,0,0.1-0.1,0.1-0.1
		c0.1-0.2,0.2-0.3,0.1-2.6c0-0.2,0-0.3,0-0.4c0-0.4,0-0.7-0.1-0.8c0,0,0,0,0,0c0,0,0,0,0-0.1c0.1-0.1,0.1-0.1,0-1.2
		c0-0.1,0-0.3,0-0.3c0-0.3-0.2-0.5-0.5-0.5c0,0,0,0,0,0c0,0,0,0,0,0c0,0-0.1,0-0.2,0l-0.1,0h-3l-0.1,0c-0.1,0-0.1,0-0.2,0
		c0,0,0,0,0,0c0,0,0,0,0,0c-0.2,0-0.4,0.1-0.4,0.3c0,0.1,0,0.2,0,0.2c0,0,0,0.2,0,0.3c0,1,0,1,0,1.2c0,0,0,0,0,0.1c0,0,0,0,0,0
		c0,0.2-0.1,0.4-0.1,0.8c0,0.1,0,0.2,0,0.4c0,2.2,0,2.4,0.1,2.6c0,0,0.1,0.1,0.1,0.1c0,0.1-0.1,0.2-0.1,0.3
		c-0.1,0.1-0.1,0.3-0.2,0.5c-0.2,0.6-0.4,1-0.4,1.3c-0.1,0.3-0.4,2.2-0.1,3.2c0.2,0.9,0.2,1.5,0,1.9c-0.1,0.1-0.2,0.3-0.4,0.4
		c-0.8,0.9-2.3,2.6-2.3,4.1c0,0.9,0,5.8,0.1,10.8c0,2.7,0.1,5,0.1,6.6c0.1,3.1,0.2,3.2,0.3,3.4c0,0,0,0.1,0.1,0.1
		c0.3,0.4,0.7,0.8,1.8,0.8l6.5,0l0,0c1.1-0.1,1.5-0.5,1.8-0.8c0,0,0-0.1,0.1-0.1c0.1-0.2,0.2-0.2,0.3-3.4c0.1-1.7,0.1-4,0.1-6.6
		C383.9,330.3,383.9,325.4,383.9,324.5z"/>
	<path id="XMLID_28_" class="st0" d="M352.6,324.5c-0.1-1.5-1.5-3.2-2.3-4.1c-0.2-0.2-0.3-0.4-0.4-0.4c-0.2-0.3-0.3-1,0-1.9
		c0.3-1,0-2.9-0.1-3.2c0-0.2-0.2-0.6-0.4-1.3c-0.1-0.2-0.1-0.3-0.2-0.5c0-0.1-0.1-0.2-0.1-0.3c0,0,0.1-0.1,0.1-0.1
		c0.1-0.2,0.2-0.3,0.1-2.6c0-0.2,0-0.3,0-0.4c0-0.4,0-0.7-0.1-0.8c0,0,0,0,0,0c0,0,0,0,0-0.1c0.1-0.1,0.1-0.1,0-1.2
		c0-0.1,0-0.3,0-0.3c0-0.3-0.2-0.5-0.5-0.5c0,0,0,0,0,0c0,0,0,0,0,0c0,0-0.1,0-0.2,0l-0.1,0h-3l-0.1,0c-0.1,0-0.1,0-0.2,0
		c0,0,0,0,0,0c0,0,0,0,0,0c-0.2,0-0.4,0.1-0.4,0.3c0,0.1,0,0.2,0,0.2c0,0,0,0.2,0,0.3c0,1,0,1,0,1.2c0,0,0,0,0,0.1c0,0,0,0,0,0
		c0,0.2-0.1,0.4-0.1,0.8c0,0.1,0,0.2,0,0.4c0,2.2,0,2.4,0.1,2.6c0,0,0.1,0.1,0.1,0.1c0,0.1-0.1,0.2-0.1,0.3
		c-0.1,0.1-0.1,0.3-0.2,0.5c-0.2,0.6-0.4,1-0.4,1.3c-0.1,0.3-0.4,2.2-0.1,3.2c0.2,0.9,0.2,1.5,0,1.9c-0.1,0.1-0.2,0.3-0.4,0.4
		c-0.8,0.9-2.3,2.6-2.3,4.1c0,0.9,0,5.8,0.1,10.8c0,2.7,0.1,5,0.1,6.6c0.1,3.1,0.2,3.2,0.3,3.4c0,0,0,0.1,0.1,0.1
		c0.3,0.4,0.7,0.8,1.8,0.8l6.5,0l0,0c1.1-0.1,1.5-0.5,1.8-0.8c0,0,0-0.1,0.1-0.1c0.1-0.2,0.2-0.2,0.3-3.4c0.1-1.7,0.1-4,0.1-6.6
		C352.6,330.3,352.7,325.4,352.6,324.5z"/>
</g>
<g id="XMLID_175_">
	<path id="XMLID_39_" class="st0" d="M31,22.7c-0.1-1.7-1.7-3.7-2.6-4.7c-0.2-0.2-0.4-0.4-0.4-0.5c-0.3-0.4-0.3-1.1-0.1-2.1
		c0.3-1.2-0.1-3.3-0.1-3.7c-0.1-0.3-0.2-0.7-0.5-1.5c-0.1-0.2-0.1-0.4-0.2-0.5c0-0.1-0.1-0.2-0.1-0.3c0,0,0.1-0.1,0.1-0.1
		c0.1-0.2,0.2-0.4,0.2-2.9c0-0.2,0-0.3,0-0.5c0-0.5,0-0.7-0.1-0.9c0,0,0,0,0,0c0,0,0-0.1,0-0.1c0.1-0.1,0.1-0.1,0-1.3
		c0-0.2,0-0.4,0-0.4c0-0.4-0.3-0.6-0.5-0.6c0,0,0,0,0,0c0,0,0,0,0,0c0,0-0.1,0-0.2,0l-0.1,0h-3.4l-0.1,0c-0.1,0-0.2,0-0.2,0
		c0,0,0,0,0,0c0,0,0,0,0,0c-0.2,0-0.4,0.1-0.5,0.3c0,0.1,0,0.2,0,0.3c0,0,0,0.2,0,0.4c0,1.2,0,1.2,0,1.3c0,0,0,0,0,0.1c0,0,0,0,0,0
		c-0.1,0.2-0.1,0.4-0.1,0.9c0,0.1,0,0.3,0,0.5c0,2.5,0,2.7,0.2,2.9c0,0.1,0.1,0.1,0.1,0.1c0,0.1-0.1,0.2-0.1,0.3
		c-0.1,0.2-0.1,0.3-0.2,0.5c-0.3,0.7-0.4,1.2-0.5,1.5c-0.1,0.4-0.4,2.5-0.1,3.7c0.2,1,0.2,1.7-0.1,2.1c-0.1,0.1-0.2,0.3-0.4,0.5
		c-0.9,1-2.6,3-2.6,4.7c0,1,0,6.6,0.1,12.3c0,3,0.1,5.6,0.2,7.5c0.1,3.6,0.2,3.6,0.3,3.8c0,0,0.1,0.1,0.1,0.1c0.4,0.4,0.8,0.9,2.1,1
		l7.3,0l0,0c1.3-0.1,1.7-0.5,2.1-1c0,0,0.1-0.1,0.1-0.1c0.2-0.2,0.2-0.3,0.3-3.8c0.1-1.9,0.1-4.5,0.2-7.5C31,29.3,31,23.7,31,22.7z"
		/>
	<path id="XMLID_38_" class="st0" d="M46.3,23c-0.1-1.5-1.5-3.2-2.3-4.1c-0.2-0.2-0.3-0.4-0.4-0.4c-0.2-0.3-0.3-1,0-1.9
		c0.3-1,0-2.9-0.1-3.2c0-0.2-0.2-0.6-0.4-1.3c-0.1-0.2-0.1-0.3-0.2-0.5c0-0.1-0.1-0.2-0.1-0.3c0,0,0.1-0.1,0.1-0.1
		C42.9,11,43,10.8,43,8.6c0-0.2,0-0.3,0-0.4c0-0.4,0-0.7-0.1-0.8c0,0,0,0,0,0c0,0,0,0,0-0.1c0.1-0.1,0.1-0.1,0-1.2
		c0-0.1,0-0.3,0-0.3c0-0.3-0.2-0.5-0.5-0.5c0,0,0,0,0,0c0,0,0,0,0,0c0,0-0.1,0-0.2,0l-0.1,0h-3l-0.1,0c-0.1,0-0.1,0-0.2,0
		c0,0,0,0,0,0c0,0,0,0,0,0c-0.2,0-0.4,0.1-0.4,0.3c0,0.1,0,0.2,0,0.2c0,0,0,0.2,0,0.3c0,1,0,1,0,1.2c0,0,0,0,0,0.1c0,0,0,0,0,0
		c0,0.2-0.1,0.4-0.1,0.8c0,0.1,0,0.2,0,0.4c0,2.2,0,2.4,0.1,2.6c0,0,0.1,0.1,0.1,0.1c0,0.1-0.1,0.2-0.1,0.3
		c-0.1,0.1-0.1,0.3-0.2,0.5c-0.2,0.6-0.4,1-0.4,1.3c-0.1,0.3-0.4,2.2-0.1,3.2c0.2,0.9,0.2,1.5,0,1.9c-0.1,0.1-0.2,0.3-0.4,0.4
		c-0.8,0.9-2.3,2.6-2.3,4.1c0,0.9,0,5.8,0.1,10.8c0,2.7,0.1,5,0.1,6.6c0.1,3.1,0.2,3.2,0.3,3.4c0,0,0,0.1,0.1,0.1
		c0.3,0.4,0.7,0.8,1.8,0.8l6.5,0l0,0c1.1-0.1,1.5-0.5,1.8-0.8c0,0,0-0.1,0.1-0.1c0.1-0.2,0.2-0.2,0.3-3.4c0.1-1.7,0.1-4,0.1-6.6
		C46.3,28.8,46.3,23.9,46.3,23z"/>
	<path id="XMLID_37_" class="st0" d="M15,23c-0.1-1.5-1.5-3.2-2.3-4.1c-0.2-0.2-0.3-0.4-0.4-0.4c-0.2-0.3-0.3-1,0-1.9
		c0.3-1,0-2.9-0.1-3.2c0-0.2-0.2-0.6-0.4-1.3c-0.1-0.2-0.1-0.3-0.2-0.5c0-0.1-0.1-0.2-0.1-0.3c0,0,0.1-0.1,0.1-0.1
		c0.1-0.2,0.2-0.3,0.1-2.6c0-0.2,0-0.3,0-0.4c0-0.4,0-0.7-0.1-0.8c0,0,0,0,0,0c0,0,0,0,0-0.1c0.1-0.1,0.1-0.1,0-1.2
		c0-0.1,0-0.3,0-0.3c0-0.3-0.2-0.5-0.5-0.5c0,0,0,0,0,0c0,0,0,0,0,0c0,0-0.1,0-0.2,0l-0.1,0h-3l-0.1,0c-0.1,0-0.1,0-0.2,0
		c0,0,0,0,0,0c0,0,0,0,0,0c-0.2,0-0.4,0.1-0.4,0.3c0,0.1,0,0.2,0,0.2c0,0,0,0.2,0,0.3c0,1,0,1,0,1.2c0,0,0,0,0,0.1c0,0,0,0,0,0
		C7.1,7.5,7,7.8,7,8.2c0,0.1,0,0.2,0,0.4c0,2.2,0,2.4,0.1,2.6c0,0,0.1,0.1,0.1,0.1c0,0.1-0.1,0.2-0.1,0.3C7.1,11.7,7.1,11.9,7,12
		c-0.2,0.6-0.4,1-0.4,1.3c-0.1,0.3-0.4,2.2-0.1,3.2c0.2,0.9,0.2,1.5,0,1.9c-0.1,0.1-0.2,0.3-0.4,0.4c-0.8,0.9-2.3,2.6-2.3,4.1
		c0,0.9,0,5.8,0.1,10.8c0,2.7,0.1,5,0.1,6.6c0.1,3.1,0.2,3.2,0.3,3.4c0,0,0,0.1,0.1,0.1c0.3,0.4,0.7,0.8,1.8,0.8l6.5,0l0,0
		c1.1-0.1,1.5-0.5,1.8-0.8c0,0,0-0.1,0.1-0.1c0.1-0.2,0.2-0.2,0.3-3.4c0.1-1.7,0.1-4,0.1-6.6C15,28.8,15,23.9,15,23z"/>
</g>
</svg>
