<?xml version="1.0" encoding="utf-8"?>
<!-- Generator: Adobe Illustrator 19.0.0, SVG Export Plug-In . SVG Version: 6.00 Build 0)  -->
<svg version="1.1" id="Camada_1" xmlns="http://www.w3.org/2000/svg" xmlns:xlink="http://www.w3.org/1999/xlink" x="0px" y="0px"
	 viewBox="0 0 50 50" style="enable-background:new 0 0 50 50;" xml:space="preserve">
<style type="text/css">
	.st0{fill:#FFFFFF;}
</style>
<g id="XMLID_686_">
	<g id="XMLID_1339_">
		<path id="XMLID_1352_" class="st0" d="M10.2,28.1C10,27.8,9.9,27.4,10,27c0.1-0.4,0.4-0.7,0.7-0.9l8.2-4.1
			c0.2-0.1,0.4-0.1,0.6-0.1h13.2l5.1-3.8c0.6-0.5,1.5-0.3,1.9,0.3c0.5,0.6,0.3,1.5-0.3,1.9L34,24.3c-0.2,0.2-0.5,0.3-0.8,0.3h-5.5
			l0,8.2h-6.8l-1.2-8.1l-6.4,3.2l1.9,2.8c0.4,0.6,0.2,1.5-0.4,1.9c-0.2,0.2-0.5,0.2-0.8,0.2c-0.4,0-0.9-0.2-1.1-0.6L10.2,28.1z"/>
		<path id="XMLID_1350_" class="st0" d="M22.9,12.3c2.3,0,4.1,1.8,4.1,4.1s-1.8,4.1-4.1,4.1c-2.3,0-4.1-1.8-4.1-4.1
			S20.7,12.3,22.9,12.3z"/>
		<path id="XMLID_1348_" class="st0" d="M8.6,35.9c0-0.6,0.5-1,1-1h11.6c0.6,0,1,0.5,1,1c0,0.6-0.5,1-1,1H9.6
			C9.1,36.9,8.6,36.4,8.6,35.9z"/>
		<path id="XMLID_1346_" class="st0" d="M28.7,34.8h11.6c0.6,0,1,0.5,1,1c0,0.6-0.5,1-1,1H28.7c-0.6,0-1-0.5-1-1
			C27.7,35.3,28.2,34.8,28.7,34.8z"/>
		<path id="XMLID_1344_" class="st0" d="M44.1,38.9v2.7c0,0.4-0.3,0.7-0.7,0.7H6.5c-0.4,0-0.7-0.3-0.7-0.7v-2.7
			c0-0.4,0.3-0.7,0.7-0.7h36.9C43.8,38.2,44.1,38.6,44.1,38.9z"/>
		<path id="XMLID_1342_" class="st0" d="M14.4,16.4c0-4.7,3.8-8.5,8.5-8.5s8.5,3.8,8.5,8.5c0,0.6-0.5,1-1,1h-1.4c-0.6,0-1-0.5-1-1
			c0-0.6,0.5-1,1-1h0.3c-0.5-3.1-3.2-5.5-6.4-5.5c-3.2,0-5.9,2.4-6.4,5.5h0.3c0.6,0,1,0.5,1,1c0,0.6-0.5,1-1,1h-1.4
			C14.9,17.4,14.4,17,14.4,16.4z"/>
		<path id="XMLID_1340_" class="st0" d="M44.1,7.9v5.4c0,0.8-0.9,1.4-1.7,1.6c-1.1,0.3-2.2-0.1-2.4-0.8c-0.2-0.9,0.9-1.8,2-2v-3
			L38.6,10v4.6c0,0.8-0.9,1.4-1.7,1.6c-1.1,0.3-2.2-0.1-2.4-0.8c-0.2-0.9,0.9-1.8,2-2V9.2c0-0.5,0.3-0.9,0.8-1l5.5-1.4
			C43.5,6.7,44.1,7.2,44.1,7.9z"/>
	</g>
</g>
</svg>
