<?xml version="1.0" encoding="utf-8"?>
<!-- Generator: Adobe Illustrator 19.0.0, SVG Export Plug-In . SVG Version: 6.00 Build 0)  -->
<svg version="1.1" id="Camada_1" xmlns="http://www.w3.org/2000/svg" xmlns:xlink="http://www.w3.org/1999/xlink" x="0px" y="0px"
	 viewBox="0 0 50 50" style="enable-background:new 0 0 50 50;" xml:space="preserve">
<style type="text/css">
	.st0{fill:#FFFFFF;}
</style>
<g id="XMLID_282_">
	<path id="XMLID_250_" class="st0" d="M367.8,324c-0.1-1.7-1.7-3.7-2.6-4.7c-0.2-0.2-0.4-0.4-0.4-0.5c-0.3-0.4-0.3-1.1-0.1-2.1
		c0.3-1.2-0.1-3.3-0.1-3.7c-0.1-0.3-0.2-0.7-0.5-1.5c-0.1-0.2-0.1-0.4-0.2-0.5c0-0.1-0.1-0.2-0.1-0.3c0,0,0.1-0.1,0.1-0.1
		c0.1-0.2,0.2-0.4,0.2-2.9c0-0.2,0-0.3,0-0.5c0-0.5,0-0.7-0.1-0.9c0,0,0,0,0,0c0,0,0-0.1,0-0.1c0.1-0.1,0.1-0.1,0-1.3
		c0-0.2,0-0.4,0-0.4c0-0.4-0.3-0.6-0.5-0.6c0,0,0,0,0,0c0,0,0,0,0,0c0,0-0.1,0-0.2,0l-0.1,0h-3.4l-0.1,0c-0.1,0-0.2,0-0.2,0
		c0,0,0,0,0,0c0,0,0,0,0,0c-0.2,0-0.4,0.1-0.5,0.3c0,0.1,0,0.2,0,0.3c0,0,0,0.2,0,0.4c0,1.2,0,1.2,0,1.3c0,0,0,0,0,0.1c0,0,0,0,0,0
		c-0.1,0.2-0.1,0.4-0.1,0.9c0,0.1,0,0.3,0,0.5c0,2.5,0,2.7,0.2,2.9c0,0.1,0.1,0.1,0.1,0.1c0,0.1-0.1,0.2-0.1,0.3
		c-0.1,0.2-0.1,0.3-0.2,0.5c-0.3,0.7-0.4,1.2-0.5,1.5c-0.1,0.4-0.4,2.5-0.1,3.7c0.2,1,0.2,1.7-0.1,2.1c-0.1,0.1-0.2,0.3-0.4,0.5
		c-0.9,1-2.6,3-2.6,4.7c0,1,0,6.6,0.1,12.3c0,3,0.1,5.6,0.2,7.5c0.1,3.6,0.2,3.6,0.3,3.8c0,0,0.1,0.1,0.1,0.1c0.4,0.4,0.8,0.9,2.1,1
		l7.3,0l0,0c1.3-0.1,1.7-0.5,2.1-1c0,0,0.1-0.1,0.1-0.1c0.2-0.2,0.2-0.3,0.3-3.8c0.1-1.9,0.1-4.5,0.2-7.5
		C367.8,330.6,367.9,325,367.8,324z"/>
	<path id="XMLID_85_" class="st0" d="M383.1,324.3c-0.1-1.5-1.5-3.2-2.3-4.1c-0.2-0.2-0.3-0.4-0.4-0.4c-0.2-0.3-0.3-1,0-1.9
		c0.3-1,0-2.9-0.1-3.2c0-0.2-0.2-0.6-0.4-1.3c-0.1-0.2-0.1-0.3-0.2-0.5c0-0.1-0.1-0.2-0.1-0.3c0,0,0.1-0.1,0.1-0.1
		c0.1-0.2,0.2-0.3,0.1-2.6c0-0.2,0-0.3,0-0.4c0-0.4,0-0.7-0.1-0.8c0,0,0,0,0,0c0,0,0,0,0-0.1c0.1-0.1,0.1-0.1,0-1.2
		c0-0.1,0-0.3,0-0.3c0-0.3-0.2-0.5-0.5-0.5c0,0,0,0,0,0c0,0,0,0,0,0c0,0-0.1,0-0.2,0l-0.1,0h-3l-0.1,0c-0.1,0-0.1,0-0.2,0
		c0,0,0,0,0,0c0,0,0,0,0,0c-0.2,0-0.4,0.1-0.4,0.3c0,0.1,0,0.2,0,0.2c0,0,0,0.2,0,0.3c0,1,0,1,0,1.2c0,0,0,0,0,0.1c0,0,0,0,0,0
		c0,0.2-0.1,0.4-0.1,0.8c0,0.1,0,0.2,0,0.4c0,2.2,0,2.4,0.1,2.6c0,0,0.1,0.1,0.1,0.1c0,0.1-0.1,0.2-0.1,0.3
		c-0.1,0.1-0.1,0.3-0.2,0.5c-0.2,0.6-0.4,1-0.4,1.3c-0.1,0.3-0.4,2.2-0.1,3.2c0.2,0.9,0.2,1.5,0,1.9c-0.1,0.1-0.2,0.3-0.4,0.4
		c-0.8,0.9-2.3,2.6-2.3,4.1c0,0.9,0,5.8,0.1,10.8c0,2.7,0.1,5,0.1,6.6c0.1,3.1,0.2,3.2,0.3,3.4c0,0,0,0.1,0.1,0.1
		c0.3,0.4,0.7,0.8,1.8,0.8l6.5,0l0,0c1.1-0.1,1.5-0.5,1.8-0.8c0,0,0-0.1,0.1-0.1c0.1-0.2,0.2-0.2,0.3-3.4c0.1-1.7,0.1-4,0.1-6.6
		C383.1,330.1,383.2,325.1,383.1,324.3z"/>
	<path id="XMLID_87_" class="st0" d="M351.8,324.3c-0.1-1.5-1.5-3.2-2.3-4.1c-0.2-0.2-0.3-0.4-0.4-0.4c-0.2-0.3-0.3-1,0-1.9
		c0.3-1,0-2.9-0.1-3.2c0-0.2-0.2-0.6-0.4-1.3c-0.1-0.2-0.1-0.3-0.2-0.5c0-0.1-0.1-0.2-0.1-0.3c0,0,0.1-0.1,0.1-0.1
		c0.1-0.2,0.2-0.3,0.1-2.6c0-0.2,0-0.3,0-0.4c0-0.4,0-0.7-0.1-0.8c0,0,0,0,0,0c0,0,0,0,0-0.1c0.1-0.1,0.1-0.1,0-1.2
		c0-0.1,0-0.3,0-0.3c0-0.3-0.2-0.5-0.5-0.5c0,0,0,0,0,0c0,0,0,0,0,0c0,0-0.1,0-0.2,0l-0.1,0h-3l-0.1,0c-0.1,0-0.1,0-0.2,0
		c0,0,0,0,0,0c0,0,0,0,0,0c-0.2,0-0.4,0.1-0.4,0.3c0,0.1,0,0.2,0,0.2c0,0,0,0.2,0,0.3c0,1,0,1,0,1.2c0,0,0,0,0,0.1c0,0,0,0,0,0
		c0,0.2-0.1,0.4-0.1,0.8c0,0.1,0,0.2,0,0.4c0,2.2,0,2.4,0.1,2.6c0,0,0.1,0.1,0.1,0.1c0,0.1-0.1,0.2-0.1,0.3
		c-0.1,0.1-0.1,0.3-0.2,0.5c-0.2,0.6-0.4,1-0.4,1.3c-0.1,0.3-0.4,2.2-0.1,3.2c0.2,0.9,0.2,1.5,0,1.9c-0.1,0.1-0.2,0.3-0.4,0.4
		c-0.8,0.9-2.3,2.6-2.3,4.1c0,0.9,0,5.8,0.1,10.8c0,2.7,0.1,5,0.1,6.6c0.1,3.1,0.2,3.2,0.3,3.4c0,0,0,0.1,0.1,0.1
		c0.3,0.4,0.7,0.8,1.8,0.8l6.5,0l0,0c1.1-0.1,1.5-0.5,1.8-0.8c0,0,0-0.1,0.1-0.1c0.1-0.2,0.2-0.2,0.3-3.4c0.1-1.7,0.1-4,0.1-6.6
		C351.9,330.1,351.9,325.1,351.8,324.3z"/>
</g>
<g id="XMLID_1_">
	<path id="XMLID_8_" class="st0" d="M367.8,324c-0.1-1.7-1.7-3.7-2.6-4.7c-0.2-0.2-0.4-0.4-0.4-0.5c-0.3-0.4-0.3-1.1-0.1-2.1
		c0.3-1.2-0.1-3.3-0.1-3.7c-0.1-0.3-0.2-0.7-0.5-1.5c-0.1-0.2-0.1-0.4-0.2-0.5c0-0.1-0.1-0.2-0.1-0.3c0,0,0.1-0.1,0.1-0.1
		c0.1-0.2,0.2-0.4,0.2-2.9c0-0.2,0-0.3,0-0.5c0-0.5,0-0.7-0.1-0.9c0,0,0,0,0,0c0,0,0-0.1,0-0.1c0.1-0.1,0.1-0.1,0-1.3
		c0-0.2,0-0.4,0-0.4c0-0.4-0.3-0.6-0.5-0.6c0,0,0,0,0,0c0,0,0,0,0,0c0,0-0.1,0-0.2,0l-0.1,0h-3.4l-0.1,0c-0.1,0-0.2,0-0.2,0
		c0,0,0,0,0,0c0,0,0,0,0,0c-0.2,0-0.4,0.1-0.5,0.3c0,0.1,0,0.2,0,0.3c0,0,0,0.2,0,0.4c0,1.2,0,1.2,0,1.3c0,0,0,0,0,0.1c0,0,0,0,0,0
		c-0.1,0.2-0.1,0.4-0.1,0.9c0,0.1,0,0.3,0,0.5c0,2.5,0,2.7,0.2,2.9c0,0.1,0.1,0.1,0.1,0.1c0,0.1-0.1,0.2-0.1,0.3
		c-0.1,0.2-0.1,0.3-0.2,0.5c-0.3,0.7-0.4,1.2-0.5,1.5c-0.1,0.4-0.4,2.5-0.1,3.7c0.2,1,0.2,1.7-0.1,2.1c-0.1,0.1-0.2,0.3-0.4,0.5
		c-0.9,1-2.6,3-2.6,4.7c0,1,0,6.6,0.1,12.3c0,3,0.1,5.6,0.2,7.5c0.1,3.6,0.2,3.6,0.3,3.8c0,0,0.1,0.1,0.1,0.1c0.4,0.4,0.8,0.9,2.1,1
		l7.3,0l0,0c1.3-0.1,1.7-0.5,2.1-1c0,0,0.1-0.1,0.1-0.1c0.2-0.2,0.2-0.3,0.3-3.8c0.1-1.9,0.1-4.5,0.2-7.5
		C367.8,330.6,367.9,325,367.8,324z"/>
	<path id="XMLID_5_" class="st0" d="M383.1,324.3c-0.1-1.5-1.5-3.2-2.3-4.1c-0.2-0.2-0.3-0.4-0.4-0.4c-0.2-0.3-0.3-1,0-1.9
		c0.3-1,0-2.9-0.1-3.2c0-0.2-0.2-0.6-0.4-1.3c-0.1-0.2-0.1-0.3-0.2-0.5c0-0.1-0.1-0.2-0.1-0.3c0,0,0.1-0.1,0.1-0.1
		c0.1-0.2,0.2-0.3,0.1-2.6c0-0.2,0-0.3,0-0.4c0-0.4,0-0.7-0.1-0.8c0,0,0,0,0,0c0,0,0,0,0-0.1c0.1-0.1,0.1-0.1,0-1.2
		c0-0.1,0-0.3,0-0.3c0-0.3-0.2-0.5-0.5-0.5c0,0,0,0,0,0c0,0,0,0,0,0c0,0-0.1,0-0.2,0l-0.1,0h-3l-0.1,0c-0.1,0-0.1,0-0.2,0
		c0,0,0,0,0,0c0,0,0,0,0,0c-0.2,0-0.4,0.1-0.4,0.3c0,0.1,0,0.2,0,0.2c0,0,0,0.2,0,0.3c0,1,0,1,0,1.2c0,0,0,0,0,0.1c0,0,0,0,0,0
		c0,0.2-0.1,0.4-0.1,0.8c0,0.1,0,0.2,0,0.4c0,2.2,0,2.4,0.1,2.6c0,0,0.1,0.1,0.1,0.1c0,0.1-0.1,0.2-0.1,0.3
		c-0.1,0.1-0.1,0.3-0.2,0.5c-0.2,0.6-0.4,1-0.4,1.3c-0.1,0.3-0.4,2.2-0.1,3.2c0.2,0.9,0.2,1.5,0,1.9c-0.1,0.1-0.2,0.3-0.4,0.4
		c-0.8,0.9-2.3,2.6-2.3,4.1c0,0.9,0,5.8,0.1,10.8c0,2.7,0.1,5,0.1,6.6c0.1,3.1,0.2,3.2,0.3,3.4c0,0,0,0.1,0.1,0.1
		c0.3,0.4,0.7,0.8,1.8,0.8l6.5,0l0,0c1.1-0.1,1.5-0.5,1.8-0.8c0,0,0-0.1,0.1-0.1c0.1-0.2,0.2-0.2,0.3-3.4c0.1-1.7,0.1-4,0.1-6.6
		C383.1,330.1,383.2,325.1,383.1,324.3z"/>
	<path id="XMLID_2_" class="st0" d="M351.8,324.3c-0.1-1.5-1.5-3.2-2.3-4.1c-0.2-0.2-0.3-0.4-0.4-0.4c-0.2-0.3-0.3-1,0-1.9
		c0.3-1,0-2.9-0.1-3.2c0-0.2-0.2-0.6-0.4-1.3c-0.1-0.2-0.1-0.3-0.2-0.5c0-0.1-0.1-0.2-0.1-0.3c0,0,0.1-0.1,0.1-0.1
		c0.1-0.2,0.2-0.3,0.1-2.6c0-0.2,0-0.3,0-0.4c0-0.4,0-0.7-0.1-0.8c0,0,0,0,0,0c0,0,0,0,0-0.1c0.1-0.1,0.1-0.1,0-1.2
		c0-0.1,0-0.3,0-0.3c0-0.3-0.2-0.5-0.5-0.5c0,0,0,0,0,0c0,0,0,0,0,0c0,0-0.1,0-0.2,0l-0.1,0h-3l-0.1,0c-0.1,0-0.1,0-0.2,0
		c0,0,0,0,0,0c0,0,0,0,0,0c-0.2,0-0.4,0.1-0.4,0.3c0,0.1,0,0.2,0,0.2c0,0,0,0.2,0,0.3c0,1,0,1,0,1.2c0,0,0,0,0,0.1c0,0,0,0,0,0
		c0,0.2-0.1,0.4-0.1,0.8c0,0.1,0,0.2,0,0.4c0,2.2,0,2.4,0.1,2.6c0,0,0.1,0.1,0.1,0.1c0,0.1-0.1,0.2-0.1,0.3
		c-0.1,0.1-0.1,0.3-0.2,0.5c-0.2,0.6-0.4,1-0.4,1.3c-0.1,0.3-0.4,2.2-0.1,3.2c0.2,0.9,0.2,1.5,0,1.9c-0.1,0.1-0.2,0.3-0.4,0.4
		c-0.8,0.9-2.3,2.6-2.3,4.1c0,0.9,0,5.8,0.1,10.8c0,2.7,0.1,5,0.1,6.6c0.1,3.1,0.2,3.2,0.3,3.4c0,0,0,0.1,0.1,0.1
		c0.3,0.4,0.7,0.8,1.8,0.8l6.5,0l0,0c1.1-0.1,1.5-0.5,1.8-0.8c0,0,0-0.1,0.1-0.1c0.1-0.2,0.2-0.2,0.3-3.4c0.1-1.7,0.1-4,0.1-6.6
		C351.9,330.1,351.9,325.1,351.8,324.3z"/>
</g>
<g id="XMLID_1838_">
	<g id="telephone-2_1_">
		<path id="XMLID_1842_" class="st0" d="M38.3,34.1c1.1-1.8-0.2-3.8-2.9-4.9c-2.7-1.2-3.9-1.5-4.8,0.2c0,0-0.3,0.6-0.4,1
			C35,30.7,38,33.7,38.3,34.1z"/>
		<path id="XMLID_1841_" class="st0" d="M15.6,12.2C15.6,12.2,15.6,12.2,15.6,12.2C15.6,12.2,15.6,12.3,15.6,12.2L15.6,12.2
			c2.8,2.2,4,7.7,4,7.9l0,0c0,0,0,0,0,0.1c0,0,0,0,0,0c0,0,0,0,0,0c1.2-0.4,2.1-1,1.9-2c-0.2-1-1.6-5.3-3.6-6.7
			C17.9,11.6,16.2,11.7,15.6,12.2C15.6,12.1,15.6,12.2,15.6,12.2z"/>
		<path id="XMLID_1837_" class="st0" d="M37.5,35.2L37.5,35.2c0,0-3-3.3-7.9-3.7l0,0l0,0c0,0,0,0,0,0c0,0,0,0,0,0
			c-0.2,0.3-0.9,0.9-1.7,0.5c-0.8-0.4-8.1-6.4-9.7-9c0,0-0.7-1.6,0.2-2.1c0,0,0,0,0,0c0,0,0,0,0,0c0,0,0,0,0,0c0,0,0,0,0,0
			c0,0,0,0,0,0c0,0,0,0,0,0l0,0c0-0.1-1.2-5.6-3.8-7.7l0,0c0,0,0,0-0.1,0c0,0,0,0,0,0l0,0c0,0-0.1,0-0.1-0.1c0,0,0,0,0,0
			c0,0,0,0,0,0c-0.9,0.9-3.4,3.7-3,5.5c0.5,2,4.1,6.7,5.3,8c1.3,1.4,5,5.8,9.3,8.5c0,0,4.9,3.2,6.2,3.3C33.5,38.5,36.2,37,37.5,35.2
			C37.5,35.2,37.5,35.2,37.5,35.2z"/>
	</g>
</g>
</svg>
