<?xml version="1.0" encoding="utf-8"?>
<!-- Generator: Adobe Illustrator 19.0.0, SVG Export Plug-In . SVG Version: 6.00 Build 0)  -->
<svg version="1.1" id="Camada_1" xmlns="http://www.w3.org/2000/svg" xmlns:xlink="http://www.w3.org/1999/xlink" x="0px" y="0px"
	 viewBox="0 0 50 50" style="enable-background:new 0 0 50 50;" xml:space="preserve">
<style type="text/css">
	.st0{fill:#FFFFFF;}
</style>
<g id="XMLID_190_">
	<g id="XMLID_1848_">
		<path id="XMLID_1846_" class="st0" d="M8.2,17.3c0,0,0.5-0.7-0.4-10.5c0,0,0-0.1-0.1-0.1L7.3,6.7c0,0-0.1,0-0.1,0.1l-0.2,7.2
			c0,0.1-0.1,0.2-0.2,0.2c-0.1,0-0.2,0-0.2,0c-0.1,0-0.1-0.1-0.1-0.2L6.4,6.7c0,0,0-0.1-0.1-0.1H6c0,0-0.1,0-0.1,0.1l-0.1,7.2
			c0,0.1,0,0.1-0.1,0.2c-0.1,0.1-0.1,0.1-0.2,0.1c0,0,0,0,0,0c0,0,0,0,0,0c0,0,0,0,0,0c0,0,0,0,0,0c0,0,0,0,0,0c0,0,0,0,0,0
			c0,0,0,0,0,0c0,0,0,0,0,0c0,0,0,0,0,0c0,0,0,0,0,0c-0.1,0-0.1-0.1-0.2-0.1c0,0-0.1-0.1-0.1-0.2L5.1,6.7c0,0,0-0.1-0.1-0.1H4.8
			c0,0-0.1,0-0.1,0.1l-0.2,7.2c0,0.1-0.1,0.2-0.1,0.2c-0.1,0.1-0.2,0-0.2,0C4.1,14.1,4,14,4,13.9L3.8,6.7c0,0-0.4,0-0.4,0
			c0,0-0.1,0-0.1,0.1c-0.9,9.9-0.4,10.5-0.4,10.5C3,17.8,4.2,19,4.7,19.5c0.1,0.1,0.1,0.2,0.1,0.4L4.1,41.7c0,0.9,0.6,1.7,1.4,1.7
			l0,0c0.8,0,1.4-0.8,1.4-1.7L6.3,19.8c0-0.1,0-0.3,0.1-0.4C6.9,19,8.1,17.8,8.2,17.3z"/>
		<path id="XMLID_1845_" class="st0" d="M45.8,42.7c-0.3,0-0.6-0.1-0.9-0.4c-0.3-0.3-0.5-0.8-0.4-1.3L44.9,27c0,0,0-0.1,0-0.1
			c-0.4-0.2-0.9-0.7-1-1.7c-0.1-0.9-0.1-4.9,0.1-8.8c0.1-2.3,0.3-4.2,0.6-5.7c0.3-1.9,0.7-3.1,1.2-3.7c0.2-0.3,0.5-0.4,0.8-0.4l0,0
			l0,0c0.2,0,0.6,0.1,0.6,0.6c0,0.3,0.1,14.4,0.1,18.7c0,0.3-0.1,0.5-0.3,0.7c-0.1,0.1-0.1,0.1-0.2,0.2c0,0,0,0,0,0.1L47.1,41
			c0,0.5-0.1,1-0.4,1.3C46.4,42.5,46.1,42.7,45.8,42.7z"/>
		<path id="XMLID_1844_" class="st0" d="M25.7,14.2c-1.4,0-2.7,0.3-3.9,0.8c-1.2,0.5-2.3,1.2-3.2,2.2c-0.9,0.9-1.7,2-2.2,3.2
			c-0.5,1.2-0.8,2.6-0.8,3.9s0.3,2.7,0.8,3.9c0.5,1.2,1.2,2.3,2.2,3.2c0.9,0.9,2,1.7,3.2,2.2c1.2,0.5,2.6,0.8,3.9,0.8
			c1.4,0,2.7-0.3,3.9-0.8c1.2-0.5,2.3-1.2,3.2-2.2c0.9-0.9,1.7-2,2.2-3.2c0.5-1.2,0.8-2.6,0.8-3.9s-0.3-2.7-0.8-3.9
			c-0.5-1.2-1.2-2.3-2.2-3.2c-0.9-0.9-2-1.7-3.2-2.2C28.4,14.5,27.1,14.2,25.7,14.2z"/>
		<path id="XMLID_1849_" class="st0" d="M40.1,18.2c-0.8-1.9-1.9-3.5-3.3-5c-1.4-1.4-3.1-2.6-5-3.3c-1.9-0.8-4-1.2-6.1-1.2
			c-2.1,0-4.2,0.4-6.1,1.2c-1.9,0.8-3.5,1.9-5,3.3c-1.4,1.4-2.6,3.1-3.3,5c-0.8,1.9-1.2,4-1.2,6.1s0.4,4.2,1.2,6.1
			c0.8,1.9,1.9,3.5,3.3,5c1.4,1.4,3.1,2.6,5,3.3c1.9,0.8,4,1.2,6.1,1.2c2.1,0,4.2-0.4,6.1-1.2c1.9-0.8,3.5-1.9,5-3.3
			c1.4-1.4,2.6-3.1,3.3-5c0.8-1.9,1.2-4,1.2-6.1C41.3,22.2,40.9,20.1,40.1,18.2z M35.5,28.5c-0.5,1.3-1.3,2.4-2.3,3.4
			c-1,1-2.1,1.7-3.4,2.3c-1.3,0.6-2.7,0.8-4.2,0.8c-1.4,0-2.8-0.3-4.2-0.8c-1.3-0.5-2.4-1.3-3.4-2.3c-1-1-1.7-2.1-2.3-3.4
			c-0.6-1.3-0.8-2.7-0.8-4.2c0-1.4,0.3-2.8,0.8-4.2c0.5-1.3,1.3-2.4,2.3-3.4c1-1,2.1-1.7,3.4-2.3c1.3-0.6,2.7-0.8,4.2-0.8
			c1.4,0,2.8,0.3,4.2,0.8c1.3,0.5,2.4,1.3,3.4,2.3c1,1,1.7,2.1,2.3,3.4c0.6,1.3,0.8,2.7,0.8,4.2C36.4,25.7,36.1,27.1,35.5,28.5z"/>
	</g>
</g>
</svg>
